<svg xmlns="http://www.w3.org/2000/svg" xmlns:xlink="http://www.w3.org/1999/xlink" viewBox="0 0 4547 1135.15"><defs><style>.cls-1,.cls-4{fill:#fff;}.cls-1{fill-rule:evenodd;}.cls-2{mask:url(#mask);}.cls-3{mask:url(#mask-2-2);}.cls-4{font-size:600px;font-family:Silom;}</style><mask id="mask" x="157.38" y="241.26" width="312.64" height="313.27" maskUnits="userSpaceOnUse"><g id="mask-2"><polygon id="path-1" class="cls-1" points="157.38 241.26 470.02 241.26 470.02 554.53 157.38 554.53 157.38 241.26"/></g></mask><mask id="mask-2-2" x="0" y="241.84" width="999.33" height="684.96" maskUnits="userSpaceOnUse"><g id="mask-4"><polygon id="path-3" class="cls-1" points="0 241.84 999.33 241.84 999.33 926.81 0 926.81 0 241.84"/></g></mask></defs><g id="Layer_1" data-name="Layer 1"><g id="Page-1"><g id="CodeFooDesktop"><g id="Group-13"><path id="Fill-1" class="cls-1" d="M368.07,485.3l-81.92,44.46L206.44,573a12.37,12.37,0,0,0,0,21.66L286.15,638l81.92,44.47a12.07,12.07,0,0,0,17.74-10.84V496.13a12.06,12.06,0,0,0-17.74-10.83"/><path id="Fill-3" class="cls-1" d="M401.56,451.1a12.65,12.65,0,0,0-.88,9.66,9.46,9.46,0,0,0,9.34,8.79H587.86c9.27,0,15.2-10.1,10.83-18.45L554.22,366,511,283.16a12.7,12.7,0,0,0-2.5-3.3l-2.57-5.14a9.28,9.28,0,0,0-16.75.11L432.71,391.48Z"/><g id="Group-7"><g class="cls-2"><path id="Fill-5" class="cls-1" d="M274.73,491.4A235.68,235.68,0,0,1,407.85,358.74l25-47.22L470,241.26C303.09,252.06,169.1,386.52,157.38,554.53l72.41-39Z"/></g></g><path id="Fill-8" class="cls-1" d="M722.25,675.94c-23.57,58-69.79,104.83-127.88,129.66l-27.48,50.73-38.18,70.48C697,912.59,831.14,778.91,843.08,612.44l-74.54,39.17Z"/><g id="Group-12"><g class="cls-3"><path id="Fill-10" class="cls-1" d="M997.87,298.61C984.12,269.31,890.1,284.27,758,335.56a5.26,5.26,0,0,0-3.25,5.82,5.15,5.15,0,0,0,6.87,3.94C847,313.57,905.22,304.91,916.75,327c8.89,17-30.73,69.35-103.64,131.77C767,340,657.42,253.27,526.84,241.84l37.31,70.85,27.28,51.8A239.25,239.25,0,0,1,716.9,495.54l29.51,15.95q-13.68,10.05-28.26,20.17l-1.3-.71-80.71-43.62A11.9,11.9,0,0,0,618.65,498v96.6c-26.29,15.11-53.84,29.81-82.45,43.77-80.1,39.06-157.82,69.1-226.66,90.56A240.4,240.4,0,0,1,278,672.62L232.47,648l-73.25-39.59a344.21,344.21,0,0,0,45.05,148l-8.91,2.15c-73.55,14.81-124.71,15.11-138.46,1.92-15.5-14.87,17.22-48,78.9-90.75a6.27,6.27,0,0,0,1.17-9.23,6.1,6.1,0,0,0-8-1.11C31.37,723.39-17.08,780.5,5.46,804.51c20,21.35,105.2,18.48,223.48-10.93,57.9,76,146.46,126.77,246.77,133.23L437.88,855l-25-47.5A236.33,236.33,0,0,1,339,761.38q34.2-11.42,70.3-25.17l38.26,72.64,41.91,79.56a11.82,11.82,0,0,0,21,0l41.9-79.56,43.07-81.76a12,12,0,0,0-10.5-17.71H475.61c28.2-12.06,56.9-25.13,85.88-39.27q29.29-14.28,57.16-29.47V670.1a11.9,11.9,0,0,0,17.49,10.63l80.71-43.63,78.54-42.45a12.12,12.12,0,0,0,0-21.25l-36.25-19.59q14.46-10.09,28.2-20.2l48.29,26.1a346.55,346.55,0,0,0-8.64-56.4c117-92.88,183.18-178.47,170.88-204.7"/></g></g></g></g></g><text/></g><g id="Layer_3" data-name="Layer 3"><text class="cls-4" transform="translate(1095.84 837.55)">Code Foo X</text></g></svg>