<svg xmlns="http://www.w3.org/2000/svg" xmlns:xlink="http://www.w3.org/1999/xlink" viewBox="0 0 4522.98 685.55"><defs><style>.cls-1,.cls-4{fill:#fff;}.cls-1{fill-rule:evenodd;}.cls-2{mask:url(#mask);}.cls-3{mask:url(#mask-2-2);}</style><mask id="mask" x="157.38" y="0" width="312.64" height="313.27" maskUnits="userSpaceOnUse"><g id="mask-2"><polygon id="path-1" class="cls-1" points="157.38 0 470.02 0 470.02 313.27 157.38 313.27 157.38 0"/></g></mask><mask id="mask-2-2" x="0" y="0.58" width="999.33" height="684.96" maskUnits="userSpaceOnUse"><g id="mask-4"><polygon id="path-3" class="cls-1" points="0 0.58 999.33 0.58 999.33 685.55 0 685.55 0 0.58"/></g></mask></defs><g id="icon"><g id="Page-1"><g id="CodeFooDesktop"><g id="Group-13"><path id="Fill-1" class="cls-1" d="M368.07,244,286.15,288.5l-79.71,43.27a12.37,12.37,0,0,0,0,21.66l79.71,43.27,81.92,44.47a12.07,12.07,0,0,0,17.74-10.84V254.87A12.06,12.06,0,0,0,368.07,244"/><path id="Fill-3" class="cls-1" d="M401.56,209.84a12.65,12.65,0,0,0-.88,9.66,9.46,9.46,0,0,0,9.34,8.79H587.86c9.27,0,15.2-10.1,10.83-18.45l-44.47-85.12L511,41.9a12.7,12.7,0,0,0-2.5-3.3l-2.57-5.14a9.28,9.28,0,0,0-16.75.11L432.71,150.22Z"/><g id="Group-7"><g class="cls-2"><path id="Fill-5" class="cls-1" d="M274.73,250.14A235.68,235.68,0,0,1,407.85,117.48l25-47.22L470,0C303.09,10.8,169.1,145.26,157.38,313.27l72.41-39Z"/></g></g><path id="Fill-8" class="cls-1" d="M722.25,434.68c-23.57,58-69.79,104.83-127.88,129.66l-27.48,50.73-38.18,70.48C697,671.33,831.14,537.65,843.08,371.18l-74.54,39.17Z"/><g id="Group-12"><g class="cls-3"><path id="Fill-10" class="cls-1" d="M997.87,57.35C984.12,28.05,890.1,43,758,94.3a5.26,5.26,0,0,0-3.25,5.82,5.15,5.15,0,0,0,6.87,3.94C847,72.31,905.22,63.65,916.75,85.73c8.89,17-30.73,69.35-103.64,131.77C767,98.7,657.42,12,526.84.58l37.31,70.85,27.28,51.8A239.25,239.25,0,0,1,716.9,254.28l29.51,16q-13.68,10-28.26,20.17l-1.3-.71-80.71-43.62a11.9,11.9,0,0,0-17.49,10.63v96.6c-26.29,15.11-53.84,29.81-82.45,43.77-80.1,39.06-157.82,69.1-226.66,90.56A240.4,240.4,0,0,1,278,431.36l-45.5-24.6-73.25-39.59a344.21,344.21,0,0,0,45.05,148l-8.91,2.15c-73.55,14.81-124.71,15.12-138.46,1.92-15.5-14.87,17.22-48,78.9-90.75a6.27,6.27,0,0,0,1.17-9.23,6.11,6.11,0,0,0-8-1.11C31.37,482.13-17.08,539.24,5.46,563.25c20,21.35,105.2,18.48,223.48-10.93,57.9,76,146.46,126.77,246.77,133.23l-37.83-71.82-25-47.51A236.33,236.33,0,0,1,339,520.12q34.2-11.42,70.3-25.17l38.26,72.64,41.91,79.56a11.82,11.82,0,0,0,21,0l41.9-79.56,43.07-81.76a12,12,0,0,0-10.5-17.71H475.61c28.2-12.06,56.9-25.13,85.88-39.27q29.29-14.28,57.16-29.47v29.46a11.9,11.9,0,0,0,17.49,10.63l80.71-43.63,78.54-42.44a12.12,12.12,0,0,0,0-21.26l-36.25-19.59q14.46-10.1,28.2-20.2l48.29,26.1a346.55,346.55,0,0,0-8.64-56.4c117-92.88,183.18-178.47,170.88-204.7"/></g></g></g></g></g></g><g id="text"><path class="cls-4" d="M1472,496.09q-6,100.21-99.6,100.2h-100.2q-40.82,0-70.5-29.4t-29.7-70.8V246.49q0-40.8,29.1-70.5t71.1-29.7h100.2q94.18,0,99.6,100.2h-49.8q-6-50.4-49.8-50.4H1322q-20.41,0-35.1,14.7a48.58,48.58,0,0,0-14.7,35.7v249.6q0,20.4,14.7,35.4t35.1,15h50.4q44.38,0,49.8-50.4Z"/><path class="cls-4" d="M1672.41,246.49h100.2q40.8,0,70.2,29.4t29.4,70.2v150q0,40.82-29.4,70.5t-70.2,29.7h-100.2q-40.8,0-70.5-29.4t-29.7-70.8v-150q0-40.8,29.7-70.2T1672.41,246.49Zm0,99.6v150q0,20.4,14.7,35.4t35.1,15a48.12,48.12,0,0,0,35.7-15q14.7-15,14.7-35.4v-150q0-20.38-14.7-35.1a48.6,48.6,0,0,0-35.7-14.7q-20.4,0-35.1,14.7T1672.41,346.09Z"/><path class="cls-4" d="M2272.41,596.29h-99.6v-49.8q-6,49.82-50.4,49.8h-49.8q-40.82,0-70.5-29.4t-29.7-70.8v-150q0-40.8,29.7-70.2t70.5-29.4h100.2V146.29h99.6Zm-99.6-300h-50.4q-20.4,0-35.1,14.7t-14.7,35.1v150q0,20.4,14.7,35.4t35.1,15a48.15,48.15,0,0,0,35.7-15q14.68-15,14.7-35.4Z"/><path class="cls-4" d="M2672.6,446.29H2472.8v49.8q0,20.4,14.7,35.4t35.1,15H2573q49.8,0,49.8-50.4h49.8q-11.4,100.21-99.6,100.2H2472.8q-40.8,0-70.5-29.4t-29.7-70.8v-150q0-40.8,29.7-70.2t70.5-29.4H2573q40.8,0,70.2,29.4t29.4,70.2Zm-199.8-49.8H2573v-50.4q0-20.38-14.7-35.1a48.6,48.6,0,0,0-35.7-14.7q-20.4,0-35.1,14.7t-14.7,35.1Z"/><path class="cls-4" d="M2922.8,596.29v-450H3173v49.8H3023v150h100.2v50.4H3023v199.8Z"/><path class="cls-4" d="M3372.79,246.49H3473q40.8,0,70.2,29.4t29.4,70.2v150q0,40.82-29.4,70.5t-70.2,29.7h-100.2q-40.8,0-70.5-29.4t-29.7-70.8v-150q0-40.8,29.7-70.2T3372.79,246.49Zm0,99.6v150q0,20.4,14.7,35.4t35.1,15a48.12,48.12,0,0,0,35.7-15q14.7-15,14.7-35.4v-150q0-20.38-14.7-35.1a48.6,48.6,0,0,0-35.7-14.7q-20.4,0-35.1,14.7T3372.79,346.09Z"/><path class="cls-4" d="M3773,246.49h100.2q40.8,0,70.2,29.4t29.4,70.2v150q0,40.82-29.4,70.5t-70.2,29.7H3773q-40.81,0-70.5-29.4t-29.7-70.8v-150q0-40.8,29.7-70.2T3773,246.49Zm0,99.6v150q0,20.4,14.7,35.4t35.1,15a48.13,48.13,0,0,0,35.7-15q14.7-15,14.7-35.4v-150q0-20.38-14.7-35.1a48.62,48.62,0,0,0-35.7-14.7q-20.4,0-35.1,14.7T3773,346.09Z"/><path class="cls-4" d="M4223,596.29V471.49q0-88.2,100.2-100.2-100.2-12-100.2-100.2V146.29h100.2v150q0,20.4,14.7,35.1t35.1,14.7a48.57,48.57,0,0,0,35.7-14.7q14.7-14.7,14.7-35.1v-150H4523v124.8q0,88.2-99.6,100.2,99.6,12.6,99.6,100.2v124.8h-99.6v-150q0-20.39-14.7-35.1a48.6,48.6,0,0,0-35.7-14.7q-20.4,0-35.1,14.7t-14.7,35.1v150Z"/></g></svg>