<svg id="Layer_1" data-name="Layer 1" xmlns="http://www.w3.org/2000/svg" xmlns:xlink="http://www.w3.org/1999/xlink" viewBox="0 0 668.74 137.53"><defs><style>.cls-1,.cls-4{fill:#fff;}.cls-1{fill-rule:evenodd;}.cls-2{mask:url(#mask);}.cls-3{mask:url(#mask-2-2);}.cls-4{font-size:80px;font-family:Silom;}</style><mask id="mask" x="30.04" y="0" width="59.67" height="59.79" maskUnits="userSpaceOnUse"><g id="mask-2"><polygon id="path-1" class="cls-1" points="30.04 0 89.71 0 89.71 59.79 30.04 59.79 30.04 0"/></g></mask><mask id="mask-2-2" x="0" y="0.11" width="190.73" height="130.73" maskUnits="userSpaceOnUse"><g id="mask-4"><polygon id="path-3" class="cls-1" points="0 0.11 190.73 0.11 190.73 130.84 0 130.84 0 0.11"/></g></mask></defs><title>ign-code-foo-x-nick-edit</title><g id="Page-1"><g id="CodeFooDesktop"><g id="Group-13"><path id="Fill-1" class="cls-1" d="M70.25,46.58,54.61,55.06,39.4,63.32a2.37,2.37,0,0,0,0,4.14l15.21,8.25L70.25,84.2a2.31,2.31,0,0,0,3.39-2.07V48.65a2.31,2.31,0,0,0-3.39-2.07"/><path id="Fill-3" class="cls-1" d="M76.64,40.05a2.39,2.39,0,0,0-.17,1.84,1.82,1.82,0,0,0,1.79,1.68H112.2a2.4,2.4,0,0,0,2.07-3.52l-8.49-16.24L97.52,8A2.19,2.19,0,0,0,97,7.37l-.48-1a1.77,1.77,0,0,0-3.2,0L82.59,28.67Z"/><g id="Group-7"><g class="cls-2"><path id="Fill-5" class="cls-1" d="M52.44,47.74a45,45,0,0,1,25.4-25.32l4.77-9L89.71,0C57.85,2.06,32.27,27.72,30,59.79l13.82-7.43Z"/></g></g><path id="Fill-8" class="cls-1" d="M137.85,83a45.77,45.77,0,0,1-24.41,24.75l-5.24,9.68-7.29,13.45c32.13-2.71,57.72-28.22,60-60l-14.22,7.48Z"/><g id="Group-12"><g class="cls-3"><path id="Fill-10" class="cls-1" d="M190.45,11c-2.62-5.6-20.56-2.74-45.77,7.05a1,1,0,0,0-.62,1.11,1,1,0,0,0,1.31.75c16.29-6.06,27.4-7.71,29.6-3.5,1.7,3.25-5.86,13.24-19.78,25.15A65,65,0,0,0,100.55.11l7.12,13.52,5.21,9.89a45.66,45.66,0,0,1,24,25l5.63,3q-2.61,1.92-5.39,3.85l-.25-.14L121.41,47a2.26,2.26,0,0,0-3.33,2V67.43c-5,2.89-10.28,5.69-15.74,8.35A311.14,311.14,0,0,1,59.08,93.07a45.78,45.78,0,0,1-6-10.74l-8.68-4.69-14-7.56A65.65,65.65,0,0,0,39,98.33l-1.7.41c-14,2.83-23.81,2.89-26.43.37-3-2.84,3.29-9.16,15.06-17.32A1.19,1.19,0,0,0,26.14,80a1.16,1.16,0,0,0-1.52-.22C6,92-3.26,102.92,1,107.5c3.83,4.08,20.08,3.53,42.66-2.08a64.45,64.45,0,0,0,47.09,25.43l-7.22-13.71-4.77-9.07a45.1,45.1,0,0,1-14.1-8.8q6.54-2.17,13.42-4.8l7.3,13.86,8,15.19a2.26,2.26,0,0,0,4,0l8-15.19,8.22-15.6a2.29,2.29,0,0,0-2-3.38H90.78c5.38-2.3,10.86-4.8,16.39-7.5q5.58-2.73,10.91-5.62v5.62a2.27,2.27,0,0,0,3.33,2l15.41-8.33,15-8.1a2.32,2.32,0,0,0,0-4.06l-6.92-3.74c1.84-1.28,3.64-2.57,5.38-3.85l9.22,5A66.64,66.64,0,0,0,157.84,50C180.17,32.29,192.8,16,190.45,11"/></g></g></g></g></g><text class="cls-4" transform="translate(208.58 97.85)">Code Foo X</text></svg>